<svg t="1722526337690" class="icon" viewBox="0 0 1024 1024" version="1.1" xmlns="http://www.w3.org/2000/svg" p-id="4248" width="200" height="200"><path d="M450.56 592.224l294.464-294.944a32.64 32.64 0 0 1 45.568 0 31.104 31.104 0 0 1 0 44.736L456.608 726.72a32.64 32.64 0 0 1-45.568 0l-177.536-205.792a31.104 31.104 0 0 1 0-44.736 32.64 32.64 0 0 1 45.568 0l136.768 117.344a25.6 25.6 0 0 0 34.784-1.344zM160 128.032a32 32 0 0 0-32 32V864a32 32 0 0 0 32 32h703.968a32 32 0 0 0 32-32V160.032a32 32 0 0 0-32-32H160z m0-64h703.968a96 96 0 0 1 96 96V864a96 96 0 0 1-96 96H160a96 96 0 0 1-96-96V160.032a96 96 0 0 1 96-96z" p-id="4249"></path></svg>